<?xml version="1.0" standalone="no"?>
<!DOCTYPE svg PUBLIC "-//W3C//DTD SVG 20010904//EN"
 "http://www.w3.org/TR/2001/REC-SVG-20010904/DTD/svg10.dtd">
<svg version="1.0" xmlns="http://www.w3.org/2000/svg"
 width="356.000000pt" height="356.000000pt" viewBox="0 0 356.000000 356.000000"
 preserveAspectRatio="xMidYMid meet">
<metadata>
Created by potrace 1.14, written by Peter Selinger 2001-2017
</metadata>
<g transform="translate(0.000000,356.000000) scale(0.100000,-0.100000)"
fill="#000000" stroke="none">
<path d="M1563 3387 c-105 -61 -190 -114 -188 -117 2 -3 -106 -4 -239 -3
l-242 2 -77 -132 c-41 -73 -82 -143 -89 -157 -8 -14 -24 -40 -35 -59 -12 -19
-20 -37 -18 -41 2 -3 -86 -56 -195 -119 -110 -62 -204 -118 -209 -125 -7 -8
-10 -97 -10 -239 1 -210 0 -228 -19 -259 -11 -18 -63 -108 -116 -201 l-96
-167 116 -200 116 -199 1 -232 2 -232 100 -58 c55 -32 107 -62 115 -66 8 -4
48 -26 88 -50 41 -24 79 -40 84 -36 7 3 8 1 4 -5 -4 -7 -3 -12 1 -12 5 0 23
-26 40 -57 17 -32 69 -123 116 -203 l85 -145 234 0 233 0 70 -41 c172 -102
317 -184 324 -184 7 0 154 83 289 163 26 15 57 32 70 37 13 6 21 14 18 18 -3
5 99 9 227 10 128 0 239 1 249 1 15 1 45 47 133 205 15 28 40 70 55 95 14 26
29 53 32 62 7 19 55 57 113 89 88 50 124 70 215 123 l95 55 2 232 1 232 116
200 116 201 -38 66 c-20 36 -39 71 -41 76 -2 6 -9 17 -16 25 -7 8 -29 47 -50
85 -21 39 -49 86 -62 106 -24 36 -24 40 -23 270 0 213 -1 235 -17 245 -10 6
-45 26 -78 44 -33 18 -64 36 -70 40 -10 7 -34 21 -174 99 -62 35 -66 39 -143
171 -43 74 -83 144 -89 155 -5 11 -22 40 -37 65 l-28 45 -232 2 -232 2 -98 56
c-53 31 -104 60 -112 65 -58 34 -190 110 -192 109 -2 0 -89 -51 -195 -112z"/>
</g>
</svg>
